<svg width="95" height="28" viewBox="0 0 95 28" fill="none" xmlns="http://www.w3.org/2000/svg">
<path d="M0.12309 6.45276H4.78771V21.2719H0.12309V6.45276ZM4.9441 2.33333C4.9441 3.60576 3.96154 4.63645 2.4248 4.63645C0.952658 4.63645 -0.0299039 3.60576 0.000694908 2.33333C-0.0299039 1.00048 0.952658 0 2.4554 0C3.95814 0 4.91011 1.00048 4.9441 2.33333Z" fill="#E84F35"/>
<path d="M55.8848 18.8078C55.8848 17.166 57.0237 15.9775 58.6591 15.9775C60.2944 15.9775 61.4028 17.1358 61.4028 18.8078C61.4028 20.4226 60.291 21.6078 58.6285 21.6078C57.0237 21.6078 55.8848 20.4226 55.8848 18.8078Z" fill="#E84F35"/>
<path d="M13.1276 10.3436C13.5287 10.4342 14.0217 10.4678 14.6983 10.4678C17.1972 10.4678 18.7373 9.21887 18.7373 7.12055C18.7373 5.23374 17.4114 4.10904 15.0689 4.10904C14.1135 4.10904 13.4676 4.19969 13.1276 4.29033V10.3436ZM8.47314 1.03038C9.92149 0.785299 11.958 0.604004 14.8241 0.604004C17.7208 0.604004 19.7879 1.15125 21.1751 2.24909C22.501 3.28314 23.3952 4.98866 23.3952 6.99969C23.3952 9.00736 22.7152 10.7129 21.4844 11.8711C19.8797 13.3618 17.51 14.0333 14.7323 14.0333C14.1169 14.0333 13.5593 14.003 13.1276 13.9426V21.2783H8.47314V1.03038Z" fill="#7B9AA9"/>
<path d="M33.6899 14.2413C31.225 14.2111 29.3142 14.7886 29.3142 16.5848C29.3142 17.7699 30.1166 18.3507 31.1638 18.3507C32.3333 18.3507 33.2921 17.5919 33.5981 16.6485C33.6593 16.4068 33.6899 16.1315 33.6899 15.8562V14.2413ZM34.244 21.2716L33.9653 19.7809H33.8735C32.8875 20.9694 31.344 21.6073 29.559 21.6073C26.5059 21.6073 24.687 19.4183 24.687 17.0413C24.687 13.1771 28.2025 11.3205 33.5335 11.3507V11.1392C33.5335 10.3469 33.1017 9.22216 30.7898 9.22216C29.2496 9.22216 27.6143 9.73919 26.6283 10.3502L25.7648 7.36892C26.8119 6.78811 28.8791 6.05957 31.6227 6.05957C36.6478 6.05957 38.2491 8.98379 38.2491 12.4821V17.6591C38.2491 19.0893 38.3103 20.4591 38.4633 21.2816H34.244V21.2716Z" fill="#7B9AA9"/>
<path d="M45.0967 6.38867L47.3474 13.6942C47.5922 14.5772 47.9016 15.6716 48.0852 16.464H48.177C48.3912 15.6716 48.6394 14.5469 48.8536 13.6942L50.7031 6.38867H55.7281L52.216 16.1887C50.0571 22.0942 48.6088 24.4678 46.9123 25.9585C45.2803 27.3585 43.5532 27.8453 42.3802 27.9997L41.3943 24.075C41.979 23.9844 42.7202 23.7091 43.4274 23.2827C44.1346 22.9167 44.9063 22.1882 45.3687 21.4261C45.5217 21.2146 45.6135 20.9695 45.6135 20.758C45.6135 20.6069 45.5829 20.3618 45.3959 19.9959L39.8779 6.38867H45.0967Z" fill="#7B9AA9"/>
<path d="M78.4489 16.4942C78.4489 18.4414 78.5101 20.0261 78.5713 21.2716H74.5017L74.2875 19.1733H74.1957C73.6109 20.0865 72.1932 21.6074 69.4767 21.6074C66.427 21.6074 64.1763 19.7206 64.1763 15.1244V6.38867H68.8919V14.3959C68.8919 16.558 69.6025 17.864 71.2344 17.864C72.5297 17.864 73.2675 16.981 73.5769 16.2525C73.6993 15.9772 73.7299 15.6146 73.7299 15.2486V6.38867H78.4455V16.4942H78.4489Z" fill="#7B9AA9"/>
<path d="M90.2231 14.2413C87.7548 14.2111 85.8441 14.7886 85.8441 16.5848C85.8441 17.7699 86.6464 18.3507 87.6936 18.3507C88.8666 18.3507 89.8219 17.5919 90.1279 16.6485C90.1891 16.4068 90.2231 16.1315 90.2231 15.8562V14.2413ZM90.7807 21.2716L90.5019 19.7809H90.4101C89.4241 20.9694 87.884 21.6073 86.0957 21.6073C83.0426 21.6073 81.2271 19.4183 81.2271 17.0413C81.2271 13.1771 84.7391 11.3205 90.0735 11.3507V11.1392C90.0735 10.3469 89.6417 9.22216 87.3298 9.22216C85.7897 9.22216 84.1543 9.73919 83.1684 10.3502L82.3048 7.36892C83.352 6.78811 85.4191 6.05957 88.1594 6.05957C93.1844 6.05957 94.7857 8.98379 94.7857 12.4821V17.6591C94.7857 19.0893 94.8469 20.4591 94.9999 21.2816H90.7807V21.2716Z" fill="#7B9AA9"/>
</svg>
